<svg width="531" height="539" viewBox="0 0 531 539" fill="none" xmlns="http://www.w3.org/2000/svg">
<path fill-rule="evenodd" clip-rule="evenodd" d="M261.621 0.100207C311.103 0.747518 362.021 3.54314 404.041 29.9743C446.366 56.5966 472.747 101.175 494.451 146.551C516.549 192.752 533.96 241.924 529.886 293.08C525.664 346.108 505.65 397.513 471.26 437.771C436.84 478.062 388.273 501.33 338.126 517.556C287.014 534.093 232.172 548.073 181.014 531.681C130.268 515.421 93.4791 472.412 61.9261 429.057C32.2198 388.239 14.0373 341.267 6.02517 291.238C-2.09899 240.51 -4.07171 187.846 15.7151 140.512C35.8035 92.4575 71.887 51.8691 116.812 26.2168C160.39 1.33402 211.58 -0.554409 261.621 0.100207Z" fill="#E0905E"/>
</svg>
