<svg width="462" height="470" viewBox="0 0 462 470" fill="none" xmlns="http://www.w3.org/2000/svg">
<path fill-rule="evenodd" clip-rule="evenodd" d="M234.444 469.913C191.412 469.348 147.132 466.91 110.589 443.863C73.7812 420.649 50.8389 381.776 31.9647 342.21C12.7469 301.923 -2.39465 259.046 1.1481 214.438C4.82043 168.199 22.2249 123.375 52.1327 88.2706C82.0655 53.1369 124.301 32.8474 167.912 18.699C212.361 4.27856 260.055 -7.9115 304.543 6.38174C348.675 20.5602 380.668 58.0634 408.108 95.8686C433.942 131.461 449.754 172.421 456.722 216.045C463.787 260.279 465.503 306.201 448.295 347.475C430.825 389.378 399.445 424.771 360.376 447.139C322.479 468.837 277.962 470.483 234.444 469.913Z" fill="#E0905E"/>
</svg>
