<svg width="556" height="620" viewBox="0 0 556 620" fill="none" xmlns="http://www.w3.org/2000/svg">
<path fill-rule="evenodd" clip-rule="evenodd" d="M286.428 1.30076C336.094 -7.38904 382.182 29.2874 424.524 56.9993C465.368 83.7304 504.059 115.217 526.929 158.704C549.439 201.504 561.425 251.891 552.034 299.45C543.171 344.334 502.627 373.276 477.103 411.037C453.746 445.59 435.948 481.946 407.889 512.695C370.79 553.352 341.06 619.289 286.428 619.995C232.017 620.698 210.791 542.536 163.165 515.858C114.198 488.429 32.1602 513.657 6.56829 463.229C-19.5247 411.814 43.4364 356.391 53.3392 299.45C61.0996 254.828 34.9147 204.561 58.2726 165.929C81.6169 127.319 136.966 127.205 173.361 100.943C214.752 71.0772 236.361 10.0606 286.428 1.30076Z" fill="#E0905E"/>
</svg>
