<svg width="562" height="601" viewBox="0 0 562 601" fill="none" xmlns="http://www.w3.org/2000/svg">
<path fill-rule="evenodd" clip-rule="evenodd" d="M289.769 1.2609C340.064 -7.1626 386.736 28.3899 429.614 55.2525C470.975 81.1645 510.156 111.686 533.317 153.84C556.112 195.329 568.249 244.172 558.739 290.273C549.764 333.782 508.707 361.837 482.859 398.441C459.207 431.935 441.183 467.177 412.769 496.984C375.2 536.394 345.093 600.311 289.769 600.995C234.669 601.677 213.174 525.91 164.945 500.049C115.358 473.461 32.2804 497.916 6.36433 449.034C-20.0592 399.194 43.6995 345.47 53.7277 290.273C61.5864 247.019 35.0699 198.292 58.7236 160.844C82.3636 123.418 138.414 123.307 175.27 97.85C217.185 68.899 239.068 9.75227 289.769 1.2609Z" fill="#E0905E"/>
</svg>
