<svg width="544" height="686" viewBox="0 0 544 686" fill="none" xmlns="http://www.w3.org/2000/svg">
<path fill-rule="evenodd" clip-rule="evenodd" d="M415.851 616C486.543 616 543.851 558.692 543.851 488C543.851 417.308 486.543 360 415.851 360C358.872 360 310.589 397.23 294 448.69C311.554 420.474 347.416 401.143 388.803 401.143C447.503 401.143 495.089 440.03 495.089 488C495.089 535.97 447.503 574.857 388.803 574.857C347.416 574.857 311.554 555.526 294 527.31C310.589 578.77 358.872 616 415.851 616Z" fill="#272727"/>
<rect x="171" y="18" width="129" height="37" rx="18.5" fill="#C4C4C4"/>
<rect x="210.065" y="131" width="105.242" height="37" rx="18.5" transform="rotate(0.100078 210.065 131)" fill="#C4C4C4"/>
<rect x="83" width="45" height="37" rx="18.5" fill="#C4C4C4"/>
<rect x="28" y="208" width="55" height="37" rx="18.5" fill="#C4C4C4"/>
<rect x="32" y="75" width="148" height="37" rx="18.5" fill="#C4C4C4"/>
<rect x="61" y="151" width="104" height="37" rx="18.5" fill="#C4C4C4"/>
<rect x="144" y="208" width="132" height="37" rx="18.5" fill="#C4C4C4"/>
<rect x="89" y="255" width="58" height="37" rx="18.5" fill="#C4C4C4"/>
<rect x="165" y="283" width="160" height="37" rx="18.5" fill="#C4C4C4"/>
<path d="M0 311C0 306.029 4.02944 302 9 302H410C414.971 302 419 306.029 419 311V636C419 663.614 396.614 686 369 686H50C22.3858 686 0 663.614 0 636V311Z" fill="#525252"/>
</svg>
